<?xml version="1.0" encoding="UTF-8"?><svg id="Capa_2" xmlns="http://www.w3.org/2000/svg" viewBox="0 0 235.29 235.29"><defs><style>.cls-1{fill:#fff;}</style></defs><g id="Capa_1-2"><g><circle class="cls-1" cx="117.65" cy="117.65" r="117.65"/><g><path d="M128.6,104.88c11.29,8.79,9.42,19.69,7.18,30.64-.48,2.34-1.28,4.62-2.23,7.99,3.88-.36,7.13-.7,10.39-.97,16.27-1.34,32.53-3.24,48.83-3.76,8.52-.28,13.33,7.32,18.96,12.24-.23,.97-.25,1.38-.42,1.72-4.43,8.83-10.4,9.19-19.95,7.05-10.09-2.26-21.42-.82-31.9,.88-35.91,5.83-71.69,12.43-107.49,18.87-8.34,1.5-17.57-4.55-18.17-12.77-.11-1.51,1.82-4.32,3.19-4.6,18.94-3.82,37.85-8.1,56.98-10.58,11.3-1.46,17.33-6.12,18.87-17.22,.78-5.58,2.65-11.03,3.1-16.61,.54-6.71-4.16-10.52-10.64-9.11-8.63,1.88-17.3,3.7-25.75,6.23-9.68,2.91-28.02-11.21-25.06-22.18,9.4,0,18.92,1.27,27.97-.27,18.7-3.17,37.09-8.14,55.72-11.77,10.25-2,20.71-3.47,31.12-3.82,4.07-.14,8.44,3.14,12.37,5.39,3.96,2.27,5.91,6.52,3.42,10.29-1.77,2.68-5.75,4.88-9.04,5.4-14.54,2.34-29.18,3.98-43.78,5.91-.97,.13-1.9,.55-3.65,1.07Z"/><circle cx="111.43" cy="61.93" r="14.88"/></g></g></g></svg>