<?xml version="1.0" encoding="UTF-8"?><svg id="Capa_2" xmlns="http://www.w3.org/2000/svg" viewBox="0 0 422.01 62.36"><defs><style>.cls-1{fill:#fff;}</style></defs><g id="Capa_1-2"><g><g><path class="cls-1" d="M109.24,30.36c.97,.23,1.93,.61,2.87,1.14s1.77,1.19,2.52,1.99c.74,.8,1.33,1.73,1.75,2.78,.43,1.05,.64,2.22,.64,3.51,0,2.26-.46,4.16-1.37,5.7-.92,1.54-2.13,2.79-3.63,3.74-1.5,.96-3.22,1.64-5.15,2.05s-3.91,.61-5.94,.61h-18.78V10.47h17.02c1.68,0,3.46,.13,5.35,.38,1.89,.25,3.64,.76,5.23,1.52,1.6,.76,2.92,1.87,3.98,3.33s1.58,3.38,1.58,5.76c0,2.22-.56,4.06-1.67,5.5-1.11,1.44-2.58,2.52-4.42,3.22v.18Zm-14.1-9.07v5.09h3.74c.97,0,1.77-.22,2.4-.67,.62-.45,.94-1.14,.94-2.08,0-.78-.33-1.36-.99-1.75-.66-.39-1.54-.58-2.63-.58h-3.45Zm0,14.04v5.62h4.15c1.09,0,1.98-.24,2.66-.73,.68-.49,1.02-1.2,1.02-2.13,0-.55-.15-.99-.44-1.35-.29-.35-.65-.63-1.08-.85-.43-.21-.89-.36-1.37-.44-.49-.08-.95-.12-1.37-.12h-3.57Z"/><path class="cls-1" d="M120.82,30.95c0-3.31,.58-6.31,1.75-8.98,1.17-2.67,2.78-4.94,4.83-6.81,2.05-1.87,4.47-3.31,7.28-4.33,2.81-1.01,5.85-1.52,9.12-1.52s6.32,.51,9.12,1.52c2.81,1.01,5.24,2.46,7.31,4.33,2.07,1.87,3.68,4.14,4.85,6.81,1.17,2.67,1.75,5.66,1.75,8.98s-.58,6.34-1.75,9.07c-1.17,2.73-2.79,5.06-4.85,6.99-2.07,1.93-4.5,3.42-7.31,4.47-2.81,1.05-5.85,1.58-9.12,1.58s-6.32-.53-9.12-1.58c-2.81-1.05-5.23-2.54-7.28-4.47-2.05-1.93-3.66-4.26-4.83-6.99-1.17-2.73-1.75-5.75-1.75-9.07Zm14.8,0c0,1.37,.2,2.61,.61,3.74,.41,1.13,.97,2.11,1.7,2.92,.72,.82,1.59,1.45,2.6,1.9,1.01,.45,2.11,.67,3.28,.67s2.25-.22,3.25-.67c.99-.45,1.86-1.08,2.6-1.9,.74-.82,1.32-1.79,1.73-2.92,.41-1.13,.61-2.38,.61-3.74s-.2-2.54-.61-3.66c-.41-1.11-.99-2.05-1.73-2.81-.74-.76-1.61-1.35-2.6-1.78-.99-.43-2.08-.64-3.25-.64s-2.26,.21-3.28,.64c-1.01,.43-1.88,1.02-2.6,1.78-.72,.76-1.29,1.7-1.7,2.81-.41,1.11-.61,2.33-.61,3.66Z"/><path class="cls-1" d="M212.68,51.88h-13.76c-2.09,0-3.94-1.03-5.07-2.61l-.18-.27-9.12-13.61h-.12v16.49h-13.51V10.47h13.45v15.27h.12l9.16-12.66c.04-.06,.09-.11,.13-.17,1.14-1.48,2.93-2.44,4.94-2.44h13.2l-15.56,18.95,16.32,22.46Z"/><path class="cls-1" d="M235.92,52.47c-3.24,0-6.05-.45-8.45-1.35-2.4-.9-4.4-2.12-6-3.68-1.6-1.56-2.79-3.4-3.57-5.53-.78-2.12-1.17-4.42-1.17-6.87V9.89h13.92v23.63c0,1.99,.48,3.54,1.43,4.65,.96,1.11,2.31,1.67,4.07,1.67s3.11-.56,4.07-1.67c.96-1.11,1.43-2.66,1.43-4.65V9.89h13.86v25.15c0,2.46-.42,4.75-1.26,6.87-.84,2.13-2.08,3.97-3.71,5.53-1.64,1.56-3.68,2.79-6.11,3.68-2.44,.9-5.27,1.35-8.51,1.35Z"/><path class="cls-1" d="M281.19,52.34h-19.23V10.02h17.47c1.69,0,3.51,.13,5.41,.38,1.93,.26,3.73,.78,5.37,1.56,1.66,.79,3.06,1.96,4.15,3.48,1.1,1.53,1.66,3.56,1.66,6.02,0,2.31-.59,4.26-1.76,5.77-.96,1.25-2.2,2.25-3.69,2.96,.68,.23,1.35,.53,2,.9,.97,.55,1.85,1.24,2.62,2.07,.77,.84,1.39,1.82,1.84,2.91,.45,1.1,.68,2.34,.68,3.68,0,2.33-.48,4.33-1.44,5.93-.95,1.59-2.22,2.9-3.77,3.89-1.54,.98-3.32,1.69-5.29,2.11-1.95,.41-3.98,.62-6.03,.62Zm-18.33-.9h18.33c1.99,0,3.95-.2,5.84-.6,1.87-.4,3.55-1.07,5-1.99,1.44-.91,2.61-2.12,3.48-3.59,.87-1.46,1.31-3.3,1.31-5.47,0-1.22-.21-2.34-.61-3.34-.41-1-.97-1.89-1.67-2.64-.71-.76-1.52-1.4-2.41-1.9-.9-.5-1.82-.87-2.75-1.1l-.35-.08v-.84l.29-.11c1.75-.67,3.17-1.7,4.22-3.07,1.04-1.36,1.57-3.11,1.57-5.22,0-2.27-.5-4.12-1.49-5.5-1-1.39-2.28-2.47-3.81-3.19-1.55-.74-3.26-1.23-5.1-1.48-1.86-.25-3.65-.38-5.29-.38h-16.57V51.43Zm16.69-10.04h-4.6v-6.52h4.02c.45,0,.93,.04,1.45,.12,.53,.09,1.04,.25,1.5,.48,.48,.24,.9,.57,1.23,.96,.36,.43,.54,.98,.54,1.63,0,1.09-.41,1.93-1.21,2.5-.76,.54-1.74,.82-2.92,.82Zm-3.7-.9h3.7c.99,0,1.8-.22,2.4-.65,.56-.4,.83-.98,.83-1.77,0-.44-.11-.79-.33-1.06-.25-.3-.57-.55-.94-.73-.39-.19-.81-.33-1.24-.4-.46-.07-.9-.11-1.3-.11h-3.12v4.71Zm3.29-13.66h-4.19v-5.99h3.9c1.17,0,2.13,.22,2.86,.65,.8,.47,1.22,1.21,1.22,2.14,0,1.09-.38,1.91-1.12,2.44-.7,.5-1.6,.76-2.66,.76Zm-3.29-.9h3.29c.87,0,1.59-.2,2.14-.59,.5-.36,.75-.92,.75-1.71,0-.62-.25-1.06-.77-1.37-.59-.35-1.4-.52-2.4-.52h-3v4.19Z"/><path class="cls-1" d="M329.85,52.34h-28.68V10.02h14.94v29.42h13.74v12.89Zm-27.78-.9h26.88v-11.09h-13.74V10.93h-13.14V51.43Z"/><path class="cls-1" d="M355.26,53.51c-3.31,0-6.44-.54-9.28-1.61-2.85-1.07-5.35-2.61-7.43-4.57-2.08-1.96-3.74-4.37-4.93-7.14-1.19-2.77-1.79-5.88-1.79-9.24s.6-6.44,1.79-9.16c1.19-2.72,2.85-5.06,4.93-6.97,2.08-1.9,4.58-3.39,7.43-4.42,2.84-1.03,5.97-1.55,9.28-1.55s6.43,.52,9.28,1.55c2.85,1.03,5.36,2.52,7.46,4.42,2.1,1.91,3.78,4.25,4.96,6.97,1.19,2.72,1.79,5.8,1.79,9.16s-.6,6.47-1.79,9.24c-1.19,2.77-2.86,5.18-4.96,7.14-2.1,1.96-4.61,3.5-7.46,4.57-2.85,1.07-5.97,1.61-9.28,1.61Zm0-43.75c-3.21,0-6.23,.5-8.97,1.49-2.74,.99-5.14,2.42-7.13,4.24-1.99,1.82-3.58,4.06-4.72,6.66-1.14,2.6-1.72,5.56-1.72,8.8s.58,6.23,1.72,8.89c1.14,2.66,2.73,4.96,4.72,6.84,1.99,1.88,4.39,3.35,7.13,4.38,2.74,1.03,5.76,1.55,8.97,1.55s6.22-.52,8.97-1.55c2.74-1.03,5.15-2.5,7.16-4.38,2.01-1.88,3.61-4.18,4.75-6.84,1.14-2.66,1.72-5.65,1.72-8.89s-.58-6.2-1.72-8.8c-1.14-2.6-2.73-4.84-4.74-6.66-2.01-1.82-4.42-3.25-7.16-4.24-2.75-.99-5.76-1.49-8.97-1.49Zm0,30.88c-1.23,0-2.39-.24-3.46-.71-1.07-.47-2-1.15-2.76-2.02-.76-.86-1.36-1.89-1.78-3.07-.43-1.17-.64-2.49-.64-3.9s.22-2.66,.64-3.81c.43-1.16,1.03-2.16,1.79-2.96,.76-.8,1.69-1.44,2.75-1.89,1.07-.45,2.23-.68,3.45-.68s2.38,.23,3.42,.68c1.05,.45,1.97,1.09,2.75,1.88,.78,.8,1.4,1.8,1.83,2.97,.43,1.16,.64,2.44,.64,3.81s-.22,2.72-.64,3.9c-.43,1.18-1.04,2.21-1.81,3.07-.78,.86-1.71,1.54-2.75,2.01-1.05,.47-2.2,.71-3.43,.71Zm0-18.13c-1.1,0-2.15,.2-3.1,.61-.95,.4-1.78,.97-2.45,1.68-.68,.71-1.21,1.6-1.6,2.65-.39,1.06-.59,2.23-.59,3.5s.2,2.51,.59,3.59c.39,1.07,.93,2.01,1.61,2.78,.68,.77,1.5,1.37,2.45,1.79,.95,.42,1.99,.63,3.09,.63s2.13-.21,3.06-.63c.93-.42,1.76-1.02,2.45-1.79,.7-.77,1.25-1.71,1.64-2.78,.39-1.08,.59-2.28,.59-3.59s-.2-2.44-.59-3.5c-.39-1.05-.93-1.94-1.63-2.65-.69-.71-1.52-1.28-2.46-1.68-.93-.4-1.97-.61-3.07-.61Z"/><path class="cls-1" d="M405,53.45c-3.31,0-6.42-.52-9.25-1.55-2.83-1.03-5.32-2.53-7.4-4.45-2.08-1.92-3.74-4.29-4.93-7.02-1.19-2.74-1.79-5.83-1.79-9.19s.6-6.45,1.79-9.19c1.19-2.73,2.84-5.11,4.9-7.05,2.06-1.94,4.51-3.46,7.28-4.51,2.77-1.05,5.77-1.58,8.93-1.58s6.42,.54,9.37,1.61c2.95,1.07,5.4,2.56,7.27,4.43l.29,.29-8.74,10.5-.35-.41c-.82-.96-1.79-1.74-2.91-2.32-1.1-.57-2.49-.86-4.12-.86-1.06,0-2.12,.21-3.13,.64-1.01,.42-1.92,1.04-2.69,1.83-.78,.8-1.42,1.76-1.9,2.88-.48,1.11-.72,2.37-.72,3.74,0,2.76,.72,5.04,2.15,6.76,1.4,1.7,3.72,2.56,6.88,2.56,.56,0,1.15-.05,1.74-.14,.44-.07,.8-.16,1.08-.28v-2.42h-6.67v-11.84h19.91v23.34l-.22,.13c-.99,.6-2.15,1.15-3.43,1.64-1.28,.49-2.65,.92-4.09,1.27-1.43,.35-2.95,.64-4.52,.86-1.58,.22-3.17,.33-4.74,.33Zm-.47-43.63c-3.05,0-5.95,.51-8.61,1.52-2.66,1.01-5.01,2.46-6.99,4.32-1.97,1.86-3.55,4.13-4.69,6.75-1.14,2.62-1.72,5.59-1.72,8.83s.58,6.21,1.72,8.83c1.14,2.62,2.73,4.88,4.72,6.72,1.99,1.84,4.38,3.28,7.1,4.26,2.73,.99,5.73,1.49,8.94,1.49,1.53,0,3.08-.11,4.62-.32,1.54-.21,3.03-.49,4.43-.84,1.4-.35,2.74-.76,3.98-1.24,1.14-.44,2.18-.93,3.07-1.45V26.78h-18.11v10.04h6.67v3.87l-.23,.13c-.4,.22-.93,.38-1.61,.49-.64,.1-1.27,.15-1.88,.15-3.44,0-5.99-.97-7.57-2.88-1.56-1.89-2.36-4.36-2.36-7.34,0-1.5,.27-2.88,.8-4.1,.53-1.21,1.23-2.27,2.08-3.15,.86-.88,1.86-1.56,2.99-2.03,1.12-.47,2.29-.71,3.48-.71,1.78,0,3.31,.32,4.53,.96,1.06,.55,2.01,1.27,2.82,2.14l7.53-9.05c-1.74-1.64-3.97-2.97-6.65-3.94-2.84-1.03-5.89-1.55-9.06-1.55Z"/></g><g><circle class="cls-1" cx="31.18" cy="31.18" r="31.18"/><g><path d="M34.08,27.8c2.99,2.33,2.5,5.22,1.9,8.12-.13,.62-.34,1.22-.59,2.12,1.03-.1,1.89-.19,2.75-.26,4.31-.36,8.62-.86,12.94-1,2.26-.07,3.53,1.94,5.03,3.24-.06,.26-.07,.37-.11,.46-1.17,2.34-2.76,2.44-5.29,1.87-2.67-.6-5.68-.22-8.46,.23-9.52,1.55-19,3.29-28.49,5-2.21,.4-4.66-1.21-4.82-3.39-.03-.4,.48-1.15,.85-1.22,5.02-1.01,10.03-2.15,15.1-2.8,3-.39,4.59-1.62,5-4.56,.21-1.48,.7-2.92,.82-4.4,.14-1.78-1.1-2.79-2.82-2.42-2.29,.5-4.59,.98-6.82,1.65-2.57,.77-7.43-2.97-6.64-5.88,2.49,0,5.01,.34,7.41-.07,4.96-.84,9.83-2.16,14.77-3.12,2.72-.53,5.49-.92,8.25-1.01,1.08-.04,2.24,.83,3.28,1.43,1.05,.6,1.57,1.73,.91,2.73-.47,.71-1.52,1.29-2.4,1.43-3.85,.62-7.73,1.05-11.6,1.57-.26,.03-.5,.14-.97,.28Z"/><circle cx="29.53" cy="16.41" r="3.94"/></g></g></g></g></svg>